PathFileType  4	(X/Y/Z) C:\Users\antoi\Documents\MyRepositories\mobilecap\ResultsAnalysis
DataRate	CameraRate	NumFrames	NumMarkers	Units	OrigDataRate	OrigDataStartFrame	OrigNumFrames
100.0	100.0	4	51	mm	100.0	1	269
Frame#	Time	r_knee			r_shank_antsup			r_ankle			r_calc			r_5meta			r_toe			L_knee			L_shank_antsup			L_ankle			L_calc			L_5meta			L_toe			r_sh2			r_sh3			r_sh4			L_sh2			L_sh3			r_thigh1			r_thigh2			r_thigh3			r_thigh4			r_thigh5			L_thigh1			L_thigh2			L_thigh3			L_thigh4			r.ASIS			r.PSIS			L.ASIS			L.PSIS			C7			R_Shoulder			L_Shoulder			R_Sternum			L_Sternum			R_humerus			R_elbow_med			R_elbow_lat			R_forearm			R_wrist_radius			R_wrist_ulna			L_humerus			L_elbow_med			L_elbow_lat			L_forearm			L_wrist_radius			L_wrist_ulna			R_HJC			L_HJC			R_HJC_reg			L_HJC_reg			
		X1	Y1	Z1	X2	Y2	Z2	X3	Y3	Z3	X4	Y4	Z4	X5	Y5	Z5	X6	Y6	Z6	X7	Y7	Z7	X8	Y8	Z8	X9	Y9	Z9	X10	Y10	Z10	X11	Y11	Z11	X12	Y12	Z12	X13	Y13	Z13	X14	Y14	Z14	X15	Y15	Z15	X16	Y16	Z16	X17	Y17	Z17	X18	Y18	Z18	X19	Y19	Z19	X20	Y20	Z20	X21	Y21	Z21	X22	Y22	Z22	X23	Y23	Z23	X24	Y24	Z24	X25	Y25	Z25	X26	Y26	Z26	X27	Y27	Z27	X28	Y28	Z28	X29	Y29	Z29	X30	Y30	Z30	X31	Y31	Z31	X32	Y32	Z32	X33	Y33	Z33	X34	Y34	Z34	X35	Y35	Z35	X36	Y36	Z36	X37	Y37	Z37	X38	Y38	Z38	X39	Y39	Z39	X40	Y40	Z40	X41	Y41	Z41	X42	Y42	Z42	X43	Y43	Z43	X44	Y44	Z44	X45	Y45	Z45	X46	Y46	Z46	X47	Y47	Z47	X48	Y48	Z48	X49	Y49	Z49	X50	Y50	Z50	X51	Y51	Z51	

1	0.00000000	-1217.44391	809.12335	-433.53417	-1190.17001	715.29761	-442.00077	-1281.56568	400.99209	-454.18064	-1341.68103	365.61507	-502.30203	-1161.31432	351.37828	-412.44244	-1128.12599	378.87335	-467.17303	-1218.75917	813.43927	-730.00806	-1188.17615	728.89928	-718.40448	-1272.94642	405.84762	-721.65765	-1344.91029	361.18402	-679.56067	-1164.92264	350.70996	-757.77294	-1120.98119	374.40080	-699.54791	-1203.67828	602.50649	-444.86587	-1253.23131	720.97037	-400.90858	-1273.78879	606.85120	-400.23961	-1266.12257	749.31685	-759.55906	-1281.23795	628.56552	-766.94164	-1147.62144	1085.17287	-414.50405	-1145.34453	974.86022	-426.47026	-1200.30472	946.43516	-395.67382	-1260.01103	1078.64326	-398.94253	-1251.98914	964.35663	-412.16862	-1129.65746	1055.88211	-744.23636	-1129.16375	918.00690	-721.88030	-1234.96880	1050.11204	-782.87572	-1233.53945	919.20129	-751.84630	-1106.10305	1273.28027	-460.00782	-1310.16712	1326.33675	-541.91096	-1109.20188	1274.32434	-717.85850	-1309.03002	1325.21921	-635.48487	-1266.07260	1777.56410	-588.74029	-1199.65612	1747.93747	-420.72241	-1185.39113	1743.54781	-740.46975	-1141.32757	1703.12707	-559.82400	-1144.52407	1704.18734	-606.49721	-1158.88188	1615.37338	-371.87603	-1241.98400	1412.93238	-407.76529	-1216.77634	1421.25672	-349.39001	-1157.58326	1359.23937	-336.69727	-1101.73343	1199.42682	-375.42284	-1131.97842	1197.24167	-335.11796	-1150.67934	1603.21334	-794.32203	-1224.92261	1403.05675	-749.69374	-1194.74505	1413.62231	-819.31636	-1140.26925	1359.67139	-827.19990	-1084.33565	1189.89008	-797.39203	-1115.98955	1190.92635	-839.29887	-1198.22048	1194.71876	-487.20641	-1198.27001	1195.83674	-676.76562	-1189.22756	1204.82668	-496.68970	-1187.15967	1202.79437	-666.86015	
2	0.01000000	-1217.26381	809.20360	-433.56809	-1189.99865	715.25532	-441.96348	-1281.72359	400.93376	-454.29935	-1341.73918	365.55092	-502.24841	-1161.34606	351.29324	-412.41523	-1128.12505	378.87042	-467.18673	-1218.49119	813.66238	-730.38443	-1187.99696	728.86136	-718.45546	-1272.95797	405.83146	-721.66531	-1344.92375	361.18220	-679.55352	-1164.93257	350.71960	-757.77685	-1121.01777	374.41340	-699.55315	-1203.59843	602.35016	-444.85211	-1253.18509	721.04780	-401.02776	-1273.54359	607.01058	-400.14124	-1265.90027	749.26065	-759.54489	-1281.15530	628.50472	-766.93604	-1147.49351	1085.37060	-414.06038	-1145.24497	974.81403	-426.48475	-1200.16306	946.45003	-395.79578	-1259.94963	1078.54672	-398.79944	-1251.92470	964.26375	-412.13926	-1129.52012	1055.84653	-744.23071	-1129.03092	918.03121	-721.71780	-1234.77791	1050.07560	-782.90103	-1233.38318	919.14730	-751.78638	-1106.19389	1273.35579	-460.08544	-1310.19337	1326.24695	-541.83132	-1109.15915	1274.34787	-717.78829	-1309.01815	1325.17053	-635.51648	-1265.83103	1777.59421	-588.77223	-1199.48497	1747.89693	-420.72227	-1185.30896	1743.41831	-740.26792	-1141.10796	1703.14871	-559.71496	-1144.41651	1704.10139	-606.57631	-1158.68266	1615.31921	-371.86002	-1241.83497	1413.01441	-407.84045	-1216.65117	1421.32755	-349.45333	-1157.54209	1359.19742	-336.65708	-1101.81672	1199.35100	-375.41400	-1132.11870	1197.15155	-335.05005	-1150.54635	1603.16428	-794.31254	-1224.84474	1403.03840	-749.69510	-1194.70100	1413.63708	-819.33962	-1140.22029	1359.58561	-827.25237	-1084.30256	1189.84970	-797.42651	-1115.94024	1190.89475	-839.30291	-1198.19647	1194.71804	-487.19086	-1198.21603	1195.82932	-676.75012	-1189.20261	1204.80270	-496.80464	-1187.06916	1202.84861	-666.87646	
3	0.02000000	-1216.96091	809.19297	-433.61282	-1189.74961	715.16043	-441.97012	-1281.85047	400.93795	-454.28245	-1341.74039	365.51433	-502.23612	-1161.42665	351.34467	-412.37511	-1128.16442	378.86807	-467.14480	-1218.27429	813.76016	-730.53462	-1187.77638	728.77154	-718.42499	-1272.97303	405.82716	-721.66382	-1344.93716	361.17359	-679.55561	-1164.94723	350.72623	-757.76162	-1121.00876	374.45320	-699.55196	-1203.46682	602.24617	-444.91063	-1252.94582	721.12301	-401.08615	-1273.33939	607.12943	-400.07785	-1265.65371	749.28464	-759.60751	-1281.21259	628.35589	-766.63763	-1147.22659	1085.41953	-413.82142	-1145.07732	974.81429	-426.50983	-1200.06225	946.32612	-395.91385	-1259.90315	1078.48488	-398.65932	-1251.82310	964.20977	-412.06967	-1129.29087	1055.82145	-744.21266	-1128.85604	918.03270	-721.46382	-1234.55735	1049.94101	-782.79601	-1233.17131	919.09866	-751.83769	-1106.28669	1273.41575	-460.06255	-1310.24069	1326.15540	-541.79283	-1109.11563	1274.37167	-717.72542	-1308.99957	1325.11969	-635.55291	-1265.45459	1777.59458	-588.74031	-1199.22652	1747.84575	-420.76987	-1185.09395	1743.36503	-740.35322	-1140.90019	1703.09032	-559.67912	-1144.22537	1704.03093	-606.58499	-1158.51789	1615.22137	-371.82295	-1241.75061	1413.04852	-407.90263	-1216.54429	1421.37418	-349.52701	-1157.50592	1359.09173	-336.63304	-1101.88997	1199.25629	-375.41516	-1132.20334	1197.08523	-335.00312	-1150.30413	1603.09165	-794.31933	-1224.86126	1403.00792	-749.83370	-1194.67580	1413.65109	-819.34850	-1140.18251	1359.42583	-827.20192	-1084.27060	1189.81993	-797.42525	-1115.89837	1190.81643	-839.25604	-1198.19920	1194.71107	-487.16268	-1198.14979	1195.81805	-676.72196	-1189.21745	1204.74308	-496.86100	-1186.96651	1202.86471	-666.90461	
4	0.03000000	-1216.60607	809.16784	-433.66949	-1189.44403	714.99174	-441.96381	-1281.88404	401.02319	-454.12729	-1341.72739	365.48982	-502.22289	-1161.46152	351.41824	-412.36517	-1128.21277	378.89320	-467.07132	-1218.03760	813.78959	-730.60686	-1187.51239	728.64093	-718.34802	-1273.00444	405.82045	-721.64758	-1344.95830	361.15786	-679.54988	-1164.96605	350.73619	-757.76230	-1121.01575	374.49148	-699.54813	-1203.30938	602.14458	-444.89448	-1252.53584	721.09009	-401.12324	-1273.05343	607.28057	-400.15527	-1265.39585	749.34203	-759.71478	-1281.28315	628.19729	-766.24670	-1146.93424	1085.33502	-413.70573	-1144.90578	974.90249	-426.50307	-1199.91032	946.27136	-395.85651	-1259.91486	1078.41133	-398.54142	-1251.64013	964.13326	-411.98991	-1129.09792	1055.79746	-744.19240	-1128.69381	918.04546	-721.22401	-1234.31515	1049.71936	-782.62883	-1232.93628	919.08613	-751.97895	-1106.38031	1273.47050	-459.98631	-1310.29309	1326.05995	-541.79484	-1109.06764	1274.39381	-717.65141	-1308.97871	1325.06613	-635.61910	-1265.08119	1777.59092	-588.71809	-1198.91403	1747.79772	-420.78932	-1184.78572	1743.36113	-740.57390	-1140.67365	1702.95088	-559.69416	-1143.97579	1703.97085	-606.54435	-1158.35951	1615.11016	-371.79173	-1241.68291	1413.08676	-407.96161	-1216.45217	1421.41360	-349.59665	-1157.49449	1358.95021	-336.62453	-1101.95808	1199.14310	-375.45178	-1132.27413	1197.00541	-335.00905	-1149.99975	1602.98055	-794.30908	-1224.85870	1402.99145	-749.96807	-1194.66410	1413.67362	-819.36037	-1140.14715	1359.28442	-827.12691	-1084.24554	1189.79195	-797.44193	-1115.86610	1190.72954	-839.18579	-1198.22017	1194.70348	-487.13120	-1198.06672	1195.80114	-676.69047	-1189.24113	1204.66659	-496.87824	-1186.85907	1202.86546	-666.92130	
